<svg width="80" height="45" viewBox="0 0 80 45" fill="none" xmlns="http://www.w3.org/2000/svg">
<path d="M39.0295 6.16984V0H0V39.0295H35.286V44.922H66.5511L80 6.16984H39.0295ZM35.2166 35.2166H3.81282V3.81283H35.2166V35.2166ZM63.7782 41.1092H39.0988V33.2756H66.5511L63.7782 41.1092ZM67.799 29.4627H39.0295V21.6291H70.5026L67.799 29.4627ZM39.0295 17.8163V9.98267H74.5927L71.8891 17.8163H39.0295Z" fill="black"/>
<path d="M19.5494 11.0225L21.7677 17.4697L29.0468 17.539L23.1542 21.5598L25.3726 28.0069L19.5494 24.0555L13.6568 28.0069L15.8752 21.5598L10.052 17.539L17.2617 17.4697L19.5494 11.0225Z" fill="black"/>
</svg>
