<svg width="654" height="112" viewBox="0 0 654 112" fill="none" xmlns="http://www.w3.org/2000/svg">
<path d="M59.7953 111.893H40.0088V76.8399H19.9608V111.893H0V16.796C0 12.5767 2.44062 8.68201 7.40904 5.19298C12.3775 1.70394 18.1304 0 24.6677 0H35.6505C41.5778 0 47.0692 1.70394 52.1248 5.19298C57.2675 8.68201 59.7953 12.739 59.7953 17.4452V111.893ZM40.0088 66.9408V9.98025H19.9608V66.9408H40.0088Z" fill="white"/>
<path d="M166.137 5.35524C161.255 1.8662 155.503 0.0811157 148.791 0.0811157H97.1019C90.9132 0.0811157 85.4218 1.94734 80.7149 5.6798C76.0079 9.41225 73.6545 13.5504 73.6545 18.0131V111.893H93.5281V9.98023H113.402V111.893H133.275V9.98023H153.323V111.893H173.371V16.796C173.371 12.6579 170.931 8.84428 166.137 5.35524Z" fill="white"/>
<path d="M247.287 9.98022V0.0811157H212.16C205.623 0.0811157 199.87 1.78506 194.988 5.27409C190.02 8.68199 187.579 12.5767 187.579 16.796V95.0965C187.579 98.7478 190.107 102.643 194.988 106.618C200.393 110.107 206.146 111.811 212.16 111.811H247.287V101.912H227.414V101.993H207.366V60.9364H227.414V51.0372H207.366V9.98022H247.287Z" fill="white"/>
<path d="M321.639 17.5263C321.639 12.8202 319.112 8.76313 313.969 5.27409C308.826 1.78506 303.335 0.0811157 297.495 0.0811157H261.844V111.893H281.979V60.9364H301.591V102.318C301.591 105.401 303.247 108.566 306.734 111.893H321.726V66.6162L311.615 55.9057L321.639 44.7083V17.5263ZM301.766 51.0373H281.979V9.98023H301.766V51.0373Z" fill="white"/>
<path d="M356.331 0.0811157H336.457V111.893H356.331V0.0811157Z" fill="white"/>
<path d="M411.071 101.912L391.023 101.993V9.98022H428.417C427.196 8.27628 425.453 6.73462 423.361 5.27409C418.306 1.78506 412.727 0.0811157 406.887 0.0811157H395.643C389.28 0.0811157 383.614 1.78506 378.645 5.27409C373.677 8.68199 371.236 12.5767 371.236 16.796V93.8793C371.236 98.2609 373.59 102.318 378.21 106.132C382.829 109.945 388.321 111.811 394.684 111.811H406.451C412.988 111.811 418.741 110.107 423.71 106.618C425.802 105.158 427.545 103.535 428.765 101.912H411.071Z" fill="white"/>
<path d="M497.626 5.27409C492.57 1.78506 486.992 0.0811157 481.152 0.0811157H470.169C463.631 0.0811157 457.879 1.78506 452.91 5.27409C447.942 8.68199 445.501 12.5767 445.501 16.796V111.893H465.375V76.8399H485.423V111.893H505.296V17.5263C505.296 12.8202 502.769 8.68199 497.626 5.27409ZM485.423 66.9408H465.375V9.98023H485.423V66.9408Z" fill="white"/>
<path d="M579.648 111.893H559.862V9.98023H539.814V111.893H519.94V0.0811157H555.067C561.605 0.0811157 567.358 1.78506 572.326 5.27409C577.295 8.76313 579.735 12.5767 579.735 16.8772V111.893H579.648Z" fill="white"/>
<path d="M654 111.893H634.126V76.8399H614.078V111.893H594.205V16.796C594.205 12.5767 596.645 8.68201 601.614 5.19298C606.582 1.70394 612.335 0 618.873 0H629.855C635.783 0 641.274 1.70394 646.33 5.19298C651.472 8.68201 654 12.739 654 17.4452V111.893ZM634.214 66.9408V9.98025H614.166V66.9408H634.214Z" fill="white"/>
</svg>
